<svg width="43" height="13" viewBox="0 0 43 13" fill="none" xmlns="http://www.w3.org/2000/svg">
<path d="M18 8.5C18 9.88071 16.8807 11 15.5 11C14.1193 11 13 9.88071 13 8.5C13 7.11929 14.1193 6 15.5 6C16.8807 6 18 7.11929 18 8.5Z" fill="#497174"/>
<path d="M8 8C8 10.2091 6.20914 12 4 12C1.79086 12 0 10.2091 0 8C0 5.79086 1.79086 4 4 4C6.20914 4 8 5.79086 8 8Z" fill="#EB6440"/>
<path d="M27 8.5C27 9.88071 25.8807 11 24.5 11C23.1193 11 22 9.88071 22 8.5C22 7.11929 23.1193 6 24.5 6C25.8807 6 27 7.11929 27 8.5Z" fill="#497174"/>
<path d="M36 8.5C36 9.88071 34.8807 11 33.5 11C32.1193 11 31 9.88071 31 8.5C31 7.11929 32.1193 6 33.5 6C34.8807 6 36 7.11929 36 8.5Z" fill="#497174"/>
</svg>
